<svg width="967" height="497" xmlns="http://www.w3.org/2000/svg" xmlns:xlink="http://www.w3.org/1999/xlink" overflow="hidden"><defs><clipPath id="clip0"><rect x="94" y="98" width="967" height="497"/></clipPath></defs><g clip-path="url(#clip0)" transform="translate(-94 -98)"><path d="M173.5 187 202.75 128.5 270.25 128.5 299.5 187 270.25 245.5 202.75 245.5Z" stroke="#000000" stroke-width="1.33333" stroke-miterlimit="8" fill="#FFFFFF" fill-rule="evenodd"/><text font-family="Cambria,Cambria_MSFontService,sans-serif" font-weight="400" font-size="37" transform="translate(219.25 200)">η<tspan font-size="25" x="20.3333" y="8">1</tspan></text><path d="M173.5 507 202.75 448.5 270.25 448.5 299.5 507 270.25 565.5 202.75 565.5Z" stroke="#000000" stroke-width="1.33333" stroke-miterlimit="8" fill="#FFFFFF" fill-rule="evenodd"/><text font-family="Cambria,Cambria_MSFontService,sans-serif" font-weight="400" font-size="37" transform="translate(219.25 520)">η<tspan font-size="25" x="20.3333" y="8">2</tspan></text><path d="M491.5 187 520.75 128.5 588.25 128.5 617.5 187 588.25 245.5 520.75 245.5Z" stroke="#000000" stroke-width="1.33333" stroke-miterlimit="8" fill="#FFFFFF" fill-rule="evenodd"/><text font-family="Cambria,Cambria_MSFontService,sans-serif" font-weight="400" font-size="37" transform="translate(536.583 200)">η<tspan font-size="25" x="20.3333" y="8">3</tspan></text><path d="M491.5 507 520.75 448.5 588.25 448.5 617.5 507 588.25 565.5 520.75 565.5Z" stroke="#000000" stroke-width="1.33333" stroke-miterlimit="8" fill="#FFFFFF" fill-rule="evenodd"/><text font-family="Cambria,Cambria_MSFontService,sans-serif" font-weight="400" font-size="37" transform="translate(536.583 520)">η<tspan font-size="25" x="20.3333" y="8">4</tspan></text><path d="M876.5 187 905.75 128.5 973.25 128.5 1002.5 187 973.25 245.5 905.75 245.5Z" stroke="#000000" stroke-width="1.33333" stroke-miterlimit="8" fill="#FFFFFF" fill-rule="evenodd"/><text font-family="Cambria,Cambria_MSFontService,sans-serif" font-weight="400" font-size="37" transform="translate(921.917 200)">η<tspan font-size="25" x="20.3334" y="8">5</tspan></text><path d="M876.5 347 905.75 288.5 973.25 288.5 1002.5 347 973.25 405.5 905.75 405.5Z" stroke="#000000" stroke-width="1.33333" stroke-miterlimit="8" fill="#FFFFFF" fill-rule="evenodd"/><text font-family="Cambria,Cambria_MSFontService,sans-serif" font-weight="400" font-size="37" transform="translate(921.917 360)">η<tspan font-size="25" x="20.3334" y="8">6</tspan></text><path d="M876.5 507 905.75 448.5 973.25 448.5 1002.5 507 973.25 565.5 905.75 565.5Z" stroke="#000000" stroke-width="1.33333" stroke-miterlimit="8" fill="#FFFFFF" fill-rule="evenodd"/><text font-family="Cambria,Cambria_MSFontService,sans-serif" font-weight="400" font-size="37" transform="translate(921.917 520)">η<tspan font-size="25" x="20.3334" y="8">7</tspan></text><path d="M299.5 185.833 484.167 185.833 484.167 187.167 299.5 187.167ZM482.833 182.5 490.833 186.5 482.833 190.5Z"/><path d="M300.072 186.158 487.985 500.437 486.84 501.121 298.928 186.842ZM490.161 497.581 490.833 506.5 483.295 501.687Z"/><path d="M299.5 505.833 484.167 505.833 484.167 507.167 299.5 507.167ZM482.833 502.5 490.833 506.5 482.833 510.5Z"/><path d="M0.572187-0.34212 188.484 313.936 187.34 314.62-0.572187 0.34212ZM190.661 311.081 191.333 320 183.795 315.186Z" transform="matrix(1 0 0 -1 299.5 506.5)"/><path d="M617.5 185.833 870.167 185.833 870.167 187.167 617.5 187.167ZM868.833 182.5 876.833 186.5 868.833 190.5Z"/><path d="M557.167 245.5 557.167 442.166 555.833 442.166 555.833 245.5ZM560.5 440.833 556.5 448.833 552.5 440.833Z"/><path d="M617.85 185.933 871.51 342.432 870.81 343.567 617.15 187.067ZM872.125 338.895 876.833 346.5 867.925 345.704Z"/><path d="M618.018 186.08 873.154 500.901 872.118 501.74 616.982 186.92ZM874.904 497.766 876.833 506.5 868.689 502.803Z"/><path d="M617.5 505.833 870.167 505.833 870.167 507.167 617.5 507.167ZM868.833 502.5 876.833 506.5 868.833 510.5Z"/><path d="M0.350049-0.567371 254.01 155.932 253.31 157.067-0.350049 0.567371ZM254.625 152.395 259.333 160 250.425 159.204Z" transform="matrix(1 0 0 -1 617.5 506.5)"/><path d="M0.517937-0.419745 255.654 314.401 254.618 315.24-0.517937 0.419745ZM257.404 311.266 259.333 320 251.189 316.303Z" transform="matrix(1 0 0 -1 617.5 506.5)"/><text font-family="Cambria,Cambria_MSFontService,sans-serif" font-weight="400" font-size="24" transform="translate(702.192 495)">β<tspan font-size="16" x="13.3333" y="5">74</tspan><tspan font-size="24" x="-329.907" y="0">β</tspan><tspan font-size="16" x="-316.574" y="5">42</tspan><tspan font-size="24" x="-329.644" y="-320">β</tspan><tspan font-size="16" x="-316.31" y="-315">31</tspan><tspan font-size="24" x="0" y="-320">β</tspan><tspan font-size="16" x="13.3333" y="-315">53</tspan><tspan font-size="24" x="-138.926" y="-160">β</tspan><tspan font-size="16" x="-125.592" y="-155">43</tspan><tspan font-size="24" x="-260.645" y="-201">β</tspan><tspan font-size="16" x="-247.312" y="-196">32</tspan><tspan font-size="24" x="-260.645" y="-80">β</tspan><tspan font-size="16" x="-247.312" y="-75">41</tspan></text><text font-family="Cambria,Cambria_MSFontService,sans-serif" font-weight="400" font-size="24" transform="matrix(0.853987 0.520295 -0.520295 0.853987 818.347 298)">β<tspan font-size="16" x="13.2255" y="4.82304">63</tspan></text><text font-family="Cambria,Cambria_MSFontService,sans-serif" font-weight="400" font-size="24" transform="matrix(0.600091 -0.799932 0.799932 0.600091 807.613 251)">β<tspan font-size="16" x="12.8011" y="5.39923">54</tspan></text><text font-family="Cambria,Cambria_MSFontService,sans-serif" font-weight="400" font-size="24" transform="matrix(0.85204 -0.523476 0.523476 0.85204 802.346 378)">β<tspan font-size="16" x="12.9567" y="5.61302">64</tspan></text><text font-family="Cambria,Cambria_MSFontService,sans-serif" font-weight="400" font-size="24" transform="matrix(0.625605 0.78014 -0.78014 0.625605 827.216 427)">β<tspan font-size="16" x="13.7001" y="5.29412">73</tspan></text><path d="M6.75588 0.421876 10.4791 1.43391 10.7097 1.54066 10.1495 2.75062 9.96992 2.66748 10.0751 2.70582 6.40615 1.70852ZM11.9196 2.10082 13.9316 3.03229 15.5284 3.94901 14.8646 5.10534 13.2931 4.20317 13.3449 4.22998 11.3595 3.31078ZM16.6848 4.61283 17.3611 5.00109 20.0328 6.91666 19.2559 8.00026 16.6115 6.1043 16.6681 6.14067 16.021 5.76917ZM21.1295 7.74187 24.0693 10.127 24.2671 10.3209 23.3337 11.273 23.1583 11.101 23.205 11.1427 20.2895 8.77729ZM25.2192 11.2543 27.298 13.2924 28.0475 14.1532 27.042 15.0288 26.3097 14.1878 26.3458 14.226 24.2858 12.2064ZM28.9231 15.1588 31.5497 18.1756 30.5442 19.0511 27.9175 16.0344ZM32.4253 19.1811 33.6498 20.5875 34.9223 22.3848 33.8341 23.1553 32.5809 21.3852 32.6222 21.4378 31.4197 20.0567ZM35.6928 23.473 38.0042 26.7375 36.916 27.508 34.6046 24.2434ZM38.7747 27.8257 39.748 29.2005 40.9491 31.2463 39.7993 31.9214 38.6126 29.9 38.6434 29.9477 37.6865 28.5962ZM41.6242 32.3962 43.6494 35.8456 42.4995 36.5207 40.4744 33.0712ZM44.3244 36.9954 45.4613 38.9318 46.266 40.5412 45.0734 41.1375 44.2787 39.5481 44.3001 39.5875 43.1746 37.6705ZM46.8623 41.7338 48.6511 45.3115 47.4585 45.9078 45.6697 42.3301ZM49.2474 46.5041 50.8565 49.7223 51.0288 50.1354 49.7982 50.6487 49.6347 50.2566 49.6537 50.2981 48.0548 47.1004ZM51.5421 51.366 53.082 55.0577 51.8514 55.571 50.3115 51.8793ZM53.5953 56.2883 55.1351 59.98 53.9045 60.4933 52.3647 56.8016ZM55.6484 61.2106 55.7474 61.448 57.0064 65.012 55.7492 65.4561 54.4964 61.9095 54.5097 61.9441 54.4178 61.7239ZM57.4505 66.2692 58.7827 70.0408 57.5255 70.4849 56.1933 66.7133ZM59.2268 71.298 60.1966 74.0435 60.5174 75.1179 59.2398 75.4993 58.9237 74.4407 58.9339 74.472 57.9696 71.7421ZM60.8988 76.3955 62.0432 80.2283 60.7656 80.6097 59.6212 76.7769ZM62.4247 81.5059 63.5691 85.3387 62.2915 85.7201 61.1471 81.8873ZM63.9506 86.6163 64.1444 87.2656 64.9144 90.538 63.6165 90.8434 62.8511 87.5902 62.8612 87.6282 62.673 86.9977ZM65.2198 91.8359 66.1359 95.7295 64.8381 96.0349 63.9219 92.1412ZM66.4413 97.0274 67.3575 100.921 66.0596 101.226 65.1434 97.3328ZM67.6187 102.259 68.36 106.189 67.0498 106.437 66.3084 102.506ZM68.6071 107.5 69.3484 111.43 68.0382 111.678 67.2969 107.747ZM69.5955 112.741 70.0958 115.393 70.2759 116.716 68.9547 116.896 68.7769 115.59 68.7824 115.624 68.2853 112.988ZM70.4558 118.037 70.9955 122 69.6743 122.18 69.1346 118.217ZM71.1754 123.321 71.7151 127.285 70.3939 127.465 69.8542 123.501ZM71.895 128.606 72.1006 130.116 72.3014 132.621 70.9723 132.728 70.773 130.241 70.7769 130.277 70.5738 128.786ZM72.4079 133.95 72.7276 137.937 71.3985 138.044 71.0789 134.057ZM72.8341 139.266 73.1538 143.253 71.8247 143.36 71.5051 139.373ZM73.2603 144.583 73.2909 144.964 73.3973 148.614 72.0646 148.653 71.9586 145.019 71.9605 145.053 71.9313 144.689ZM73.4362 149.946 73.5528 153.945 72.2201 153.984 72.1034 149.985ZM73.5917 155.278 73.7083 159.276 72.3756 159.315 72.2589 155.316ZM73.7106 160.647 73.5939 164.646 72.2612 164.607 72.3778 160.609ZM73.5551 165.979 73.4385 169.977 72.1057 169.938 72.2223 165.94ZM73.3996 171.31 73.2909 175.036 73.2666 175.341 71.9375 175.235 71.9604 174.947 71.9586 174.981 72.0668 171.271ZM73.1605 176.67 72.8422 180.657 71.5131 180.551 71.8314 176.564ZM72.7361 181.986 72.4177 185.974 71.0886 185.867 71.407 181.88ZM72.3116 187.303 72.1007 189.945 71.919 191.317 70.5972 191.142 70.7766 189.787 70.7729 189.822 70.9825 187.197ZM71.7439 192.639 71.2185 196.604 69.8967 196.429 70.4221 192.464ZM71.0434 197.926 70.5181 201.891 69.1963 201.716 69.7216 197.751ZM70.343 203.213 70.1587 204.604 69.6822 207.191 68.3709 206.949 68.8444 204.379 68.8391 204.412 69.0212 203.038ZM69.4406 208.502 68.716 212.436 67.4047 212.195 68.1293 208.261ZM68.4744 213.747 67.7498 217.681 66.4385 217.44 67.1631 213.506ZM67.4956 219.023 66.5794 222.917 65.2816 222.611 66.1977 218.718ZM66.2741 224.215 65.3579 228.108 64.06 227.803 64.9762 223.909ZM65.0525 229.406 64.2702 232.731 64.0996 233.324 62.8182 232.955 62.9843 232.378 62.9761 232.41 63.7546 229.101ZM63.7309 234.605 62.6248 238.449 61.3435 238.081 62.4495 234.237ZM62.2561 239.731 61.1501 243.575 59.8687 243.206 60.9748 239.362ZM60.7814 244.856 60.4484 246.014 59.5253 248.689 58.2648 248.254 59.1823 245.595 59.1718 245.628 59.5 244.488ZM59.0904 249.95 57.7859 253.731 56.5254 253.296 57.83 249.515ZM57.351 254.991 56.1234 258.55 56.0164 258.806 54.7859 258.293 54.8847 258.056 54.8698 258.095 56.0906 254.557ZM55.5031 260.037 53.9633 263.728 52.7327 263.215 54.2726 259.523ZM53.45 264.959 51.9101 268.651 50.6796 268.137 52.2194 264.446ZM51.3968 269.881 51.2327 270.275 49.6472 273.521 48.4491 272.936 50.026 269.707 50.0097 269.743 50.1663 269.368ZM49.0621 274.719 47.3067 278.314 46.1086 277.729 47.864 274.134ZM46.7216 279.512 45.9647 281.062 44.816 283.075 43.6579 282.414 44.7959 280.42 44.776 280.457 45.5235 278.927ZM44.1553 284.233 42.1732 287.708 41.0151 287.047 42.9972 283.572ZM41.5125 288.866 40.3765 290.857 39.3638 292.307 38.2707 291.543 39.266 290.118 39.2334 290.17 40.3543 288.205ZM38.6002 293.4 36.3096 296.679 35.2165 295.915 37.5071 292.636ZM35.5461 297.772 34.403 299.408 33.0602 300.982 32.046 300.116 33.3679 298.567 33.3285 298.618 34.453 297.008ZM32.1946 301.996 29.598 305.038 28.5838 304.173 31.1805 301.13ZM28.7324 306.053 28.1754 306.705 25.8895 308.946 24.9561 307.994 27.2208 305.774 27.1804 305.817 27.7182 305.187ZM24.8983 309.911 21.8403 312.49 20.9808 311.47 24.0389 308.892ZM20.7216 313.306 18.3694 314.993 17.3877 315.597 16.6889 314.462 17.6506 313.87 17.6115 313.896 19.9447 312.223ZM16.2522 316.296 15.0635 317.027 12.6142 318.136 12.0642 316.922 14.475 315.83 14.4006 315.87 15.5534 315.16ZM11.2808 318.671 8.08282 319.54 7.73325 318.253 10.9313 317.384ZM7.2581 5.22685 0 0 8.53634-2.67037ZM9.88509 322.62 1.33333 320 8.56086 314.731Z" transform="matrix(-1 1.22465e-16 1.22465e-16 1 174.833 186.5)"/><text font-family="Cambria,Cambria_MSFontService,sans-serif" font-weight="400" font-size="24" transform="translate(109.038 342)">0</text><path d="M608.5 564.5C608.5 548.484 622.827 535.5 640.5 535.5 658.173 535.5 672.5 548.484 672.5 564.5 672.5 580.516 658.173 593.5 640.5 593.5 622.827 593.5 608.5 580.516 608.5 564.5Z" stroke="#000000" stroke-width="1.33333" stroke-miterlimit="8" fill="#FFFFFF" fill-rule="evenodd"/><text font-family="Cambria,Cambria_MSFontService,sans-serif" font-weight="400" font-size="24" transform="translate(630.75 573)">ζ<tspan font-size="16" x="9.66663" y="5">4</tspan></text><path d="M996.5 565.5C996.5 549.484 1010.83 536.5 1028.5 536.5 1046.17 536.5 1060.5 549.484 1060.5 565.5 1060.5 581.516 1046.17 594.5 1028.5 594.5 1010.83 594.5 996.5 581.516 996.5 565.5Z" stroke="#000000" stroke-width="1.33333" stroke-miterlimit="8" fill="#FFFFFF" fill-rule="evenodd"/><text font-family="Cambria,Cambria_MSFontService,sans-serif" font-weight="400" font-size="24" transform="translate(1018.8 573)">ζ<tspan font-size="16" x="9.66663" y="5">7</tspan></text><path d="M996.5 405.5C996.5 389.484 1010.83 376.5 1028.5 376.5 1046.17 376.5 1060.5 389.484 1060.5 405.5 1060.5 421.516 1046.17 434.5 1028.5 434.5 1010.83 434.5 996.5 421.516 996.5 405.5Z" stroke="#000000" stroke-width="1.33333" stroke-miterlimit="8" fill="#FFFFFF" fill-rule="evenodd"/><text font-family="Cambria,Cambria_MSFontService,sans-serif" font-weight="400" font-size="24" transform="translate(1018.8 413)">ζ<tspan font-size="16" x="9.66663" y="5">6</tspan></text><path d="M996.5 244.5C996.5 228.484 1010.6 215.5 1028 215.5 1045.4 215.5 1059.5 228.484 1059.5 244.5 1059.5 260.516 1045.4 273.5 1028 273.5 1010.6 273.5 996.5 260.516 996.5 244.5Z" stroke="#000000" stroke-width="1.33333" stroke-miterlimit="8" fill="#FFFFFF" fill-rule="evenodd"/><text font-family="Cambria,Cambria_MSFontService,sans-serif" font-weight="400" font-size="24" transform="translate(1018.17 253)">ζ<tspan font-size="16" x="9.66663" y="5">5</tspan></text><path d="M608.5 129C608.5 112.708 622.827 99.5001 640.5 99.5001 658.173 99.5001 672.5 112.708 672.5 129 672.5 145.292 658.173 158.5 640.5 158.5 622.827 158.5 608.5 145.292 608.5 129Z" stroke="#000000" stroke-width="1.33333" stroke-miterlimit="8" fill="#FFFFFF" fill-rule="evenodd"/><text font-family="Cambria,Cambria_MSFontService,sans-serif" font-weight="400" font-size="24" transform="translate(630.75 137)">ζ<tspan font-size="16" x="9.66663" y="5">3</tspan></text><path d="M0 0 14.1269 8.54194" fill="#FFFFFF" fill-rule="evenodd" transform="matrix(-1 0 0 1 617.627 149.5)"/><path d="M0.344949-0.570487 8.76701 4.52197 8.07711 5.66294-0.344949 0.570487ZM9.35078 0.979641 14.1269 8.54194 5.2114 7.82548Z" transform="matrix(-1 0 0 1 617.627 149.5)"/><path d="M603.5 535.5 617.627 544.042" fill="#FFFFFF" fill-rule="evenodd"/><path d="M609.55 538.379 617.972 543.472 617.282 544.613 608.86 539.52ZM608.276 543.062 603.5 535.5 612.416 536.217Z"/><path d="M987.5 538.5 1001.63 547.042" fill="#FFFFFF" fill-rule="evenodd"/><path d="M993.55 541.379 1001.97 546.472 1001.28 547.613 992.86 542.52ZM992.276 546.062 987.5 538.5 996.416 539.217Z"/><path d="M989.5 375.5 1003.63 384.042" fill="#FFFFFF" fill-rule="evenodd"/><path d="M995.55 378.379 1003.97 383.472 1003.28 384.613 994.86 379.52ZM994.276 383.062 989.5 375.5 998.416 376.217Z"/><path d="M989.5 216.5 1003.63 225.042" fill="#FFFFFF" fill-rule="evenodd"/><path d="M995.55 219.379 1003.97 224.472 1003.28 225.613 994.86 220.52ZM994.276 224.062 989.5 216.5 998.416 217.217Z"/></g></svg>